<svg width="316" height="90" viewBox="0 0 316 90" fill="none" xmlns="http://www.w3.org/2000/svg">
<path d="M2.92 49.24C2.68 49.24 2.44 49.16 2.2 49L11.6 22.16C11.7867 21.6533 11.9867 21.2933 12.2 21.08C12.4133 20.8667 12.68 20.76 13 20.76C13.2133 20.76 13.4133 20.8 13.6 20.88L23 47.76C23.08 48 23.12 48.2133 23.12 48.4C23.12 48.96 22.7467 49.24 22 49.24L18.72 39.92H6.92L4.04 48.08C3.77333 48.8533 3.4 49.24 2.92 49.24ZM18.28 38.64L12.8 23.04L7.36 38.64H18.28ZM28.2003 49.16C28.0403 49.16 27.867 49.1067 27.6803 49V22.44C27.6803 21.3733 28.1203 20.84 29.0003 20.84C29.2403 20.84 29.467 20.8933 29.6803 21L45.0403 46.88V22.24C45.0403 21.3067 45.3736 20.84 46.0403 20.84C46.2003 20.84 46.3736 20.8933 46.5603 21V47.56C46.5603 48.6267 46.1203 49.16 45.2403 49.16C45.0003 49.16 44.7736 49.1067 44.5603 49L29.2003 23.12V47.76C29.2003 48.6933 28.867 49.16 28.2003 49.16ZM62.2263 49.4C60.3596 49.4 58.7329 48.96 57.3463 48.08C55.9596 47.2 54.8929 45.9467 54.1463 44.32C53.3996 42.6667 53.0263 40.7467 53.0263 38.56V22.24C53.0263 21.3067 53.3596 20.84 54.0263 20.84C54.1863 20.84 54.3596 20.8933 54.5463 21V37.92C54.5463 41.2267 55.2129 43.76 56.5463 45.52C57.8796 47.28 59.7729 48.16 62.2263 48.16C64.6796 48.16 66.5729 47.28 67.9063 45.52C69.2396 43.76 69.9062 41.2267 69.9062 37.92V22.24C69.9062 21.3067 70.2396 20.84 70.9063 20.84C71.0663 20.84 71.2396 20.8933 71.4263 21V38.56C71.4263 40.7467 71.0529 42.6667 70.3063 44.32C69.5596 45.9467 68.4929 47.2 67.1063 48.08C65.7196 48.96 64.0929 49.4 62.2263 49.4ZM89.1547 34.52C90.8614 34.84 92.208 35.6133 93.1947 36.84C94.208 38.0667 94.7147 39.56 94.7147 41.32C94.7147 43.8 93.808 45.7733 91.9947 47.24C90.208 48.68 87.7814 49.4 84.7147 49.4C83.7814 49.4 82.4614 49.3467 80.7547 49.24C79.1547 49.1333 78.0214 49.08 77.3547 49.08L77.1147 48.56C77.5147 47.76 77.7814 46.8267 77.9147 45.76C78.0747 44.6933 78.1547 43.2667 78.1547 41.48V28.44C78.1547 26.6533 78.0747 25.2267 77.9147 24.16C77.7814 23.0933 77.5147 22.16 77.1147 21.36L77.3547 20.84C78.4214 20.84 79.5147 20.8 80.6347 20.72C80.9814 20.6933 81.5014 20.6667 82.1947 20.64C82.9147 20.6133 83.5547 20.6 84.1147 20.6C86.9414 20.6 89.1814 21.3067 90.8347 22.72C92.5147 24.1333 93.3547 26.0267 93.3547 28.4C93.3547 29.8933 92.968 31.2 92.1947 32.32C91.448 33.44 90.4347 34.1733 89.1547 34.52ZM84.7547 21.88C84.0614 21.88 83.408 21.8933 82.7947 21.92C82.1814 21.9467 81.648 21.9733 81.1947 22C80.368 22.08 79.608 22.12 78.9147 22.12C79.4214 23.4533 79.6747 25.56 79.6747 28.44V33.96H86.3947C88.048 33.96 89.3547 33.4667 90.3147 32.48C91.3014 31.4667 91.7947 30.12 91.7947 28.44C91.7947 26.44 91.1547 24.8533 89.8747 23.68C88.6214 22.48 86.9147 21.88 84.7547 21.88ZM85.1147 48.12C87.568 48.12 89.5147 47.4933 90.9547 46.24C92.4214 44.96 93.1547 43.24 93.1547 41.08C93.1547 39.2933 92.5547 37.8667 91.3547 36.8C90.1814 35.7333 88.5947 35.2 86.5947 35.2H79.6747V41.48C79.6747 44.4133 79.4214 46.5467 78.9147 47.88C79.2614 47.88 80.0214 47.9067 81.1947 47.96C83.008 48.0667 84.3147 48.12 85.1147 48.12ZM118.587 20.84C118.747 20.84 118.92 20.8933 119.107 21V47.76C119.107 48.6933 118.774 49.16 118.107 49.16C117.947 49.16 117.774 49.1067 117.587 49V35.4H101.427V47.76C101.427 48.6933 101.094 49.16 100.427 49.16C100.267 49.16 100.094 49.1067 99.9069 49V22.24C99.9069 21.3067 100.24 20.84 100.907 20.84C101.067 20.84 101.24 20.8933 101.427 21V34.12H117.587V22.24C117.587 21.3067 117.92 20.84 118.587 20.84ZM124.404 49.24C124.164 49.24 123.924 49.16 123.684 49L133.084 22.16C133.271 21.6533 133.471 21.2933 133.684 21.08C133.898 20.8667 134.164 20.76 134.484 20.76C134.698 20.76 134.898 20.8 135.084 20.88L144.484 47.76C144.564 48 144.604 48.2133 144.604 48.4C144.604 48.96 144.231 49.24 143.484 49.24L140.204 39.92H128.404L125.524 48.08C125.258 48.8533 124.884 49.24 124.404 49.24ZM139.764 38.64L134.284 23.04L128.844 38.64H139.764ZM145.089 22.24C145.035 22.0267 145.009 21.88 145.009 21.8C145.009 21.5067 145.102 21.28 145.289 21.12C145.502 20.9333 145.769 20.84 146.089 20.84L155.049 45.68L163.729 21.68C163.915 21.12 164.262 20.84 164.769 20.84C165.035 20.84 165.275 20.8933 165.489 21L155.369 49H154.729L145.089 22.24Z" fill="white"/>
<path d="M155.972 7.62384C158.595 6.62267 161.36 6.07135 164.109 6.00137C166.859 5.93139 169.539 6.34412 171.996 7.216C174.454 8.08787 176.641 9.40182 178.433 11.0828C180.224 12.7638 181.585 14.7789 182.438 17.0131C183.291 19.2473 183.619 21.6568 183.403 24.1041C183.187 26.5513 182.432 28.9884 181.181 31.2762C179.929 33.5639 178.097 35.22 176 37C173.903 38.78 171.5 40 168.961 41.65C171.11 40.411 173.184 38.542 175 37C176.816 35.458 177.916 33.9819 179 32C180.084 30.0181 180.417 26.2954 180.604 24.1753C180.791 22.0553 180.507 19.9679 179.768 18.0324C179.029 16.0969 178.052 13.9563 176.5 12.5C174.948 11.0437 173.129 9.25531 171 8.5C169.238 7.45491 168.5 7.59216 164.5 7.216C162.118 7.27662 158.472 7.12384 155.972 7.62384Z" fill="#D9D9D9"/>
<line x1="0.990798" y1="35.5" x2="163.991" y2="34.5" stroke="black" stroke-width="3"/>
</svg>
