<svg width="315" height="91" viewBox="0 0 315 91" fill="none" xmlns="http://www.w3.org/2000/svg">
<path d="M2.016 52.252C1.764 52.252 1.512 52.168 1.26 52L11.13 23.818C11.326 23.286 11.536 22.908 11.76 22.684C11.984 22.46 12.264 22.348 12.6 22.348C12.824 22.348 13.034 22.39 13.23 22.474L23.1 50.698C23.184 50.95 23.226 51.174 23.226 51.37C23.226 51.958 22.834 52.252 22.05 52.252L18.606 42.466H6.216L3.192 51.034C2.912 51.846 2.52 52.252 2.016 52.252ZM18.144 41.122L12.39 24.742L6.678 41.122H18.144ZM35.7003 52.168C35.5323 52.168 35.3503 52.112 35.1543 52V24.112C35.1543 22.992 35.6163 22.432 36.5403 22.432C36.7923 22.432 37.0303 22.488 37.2543 22.6L53.3823 49.774V23.902C53.3823 22.922 53.7323 22.432 54.4323 22.432C54.6003 22.432 54.7823 22.488 54.9783 22.6V50.488C54.9783 51.608 54.5163 52.168 53.5923 52.168C53.3403 52.168 53.1023 52.112 52.8783 52L36.7503 24.826V50.698C36.7503 51.678 36.4003 52.168 35.7003 52.168ZM78.5676 52.42C76.6076 52.42 74.8996 51.958 73.4436 51.034C71.9876 50.11 70.8676 48.794 70.0836 47.086C69.2996 45.35 68.9076 43.334 68.9076 41.038V23.902C68.9076 22.922 69.2576 22.432 69.9576 22.432C70.1256 22.432 70.3076 22.488 70.5036 22.6V40.366C70.5036 43.838 71.2036 46.498 72.6036 48.346C74.0036 50.194 75.9916 51.118 78.5676 51.118C81.1436 51.118 83.1316 50.194 84.5316 48.346C85.9316 46.498 86.6316 43.838 86.6316 40.366V23.902C86.6316 22.922 86.9816 22.432 87.6816 22.432C87.8496 22.432 88.0316 22.488 88.2276 22.6V41.038C88.2276 43.334 87.8356 45.35 87.0516 47.086C86.2676 48.794 85.1476 50.11 83.6916 51.034C82.2356 51.958 80.5276 52.42 78.5676 52.42ZM113.982 36.796C115.774 37.132 117.188 37.944 118.224 39.232C119.288 40.52 119.82 42.088 119.82 43.936C119.82 46.54 118.868 48.612 116.964 50.152C115.088 51.664 112.54 52.42 109.32 52.42C108.34 52.42 106.954 52.364 105.162 52.252C103.482 52.14 102.292 52.084 101.592 52.084L101.34 51.538C101.76 50.698 102.04 49.718 102.18 48.598C102.348 47.478 102.432 45.98 102.432 44.104V30.412C102.432 28.536 102.348 27.038 102.18 25.918C102.04 24.798 101.76 23.818 101.34 22.978L101.592 22.432C102.712 22.432 103.86 22.39 105.036 22.306C105.4 22.278 105.946 22.25 106.674 22.222C107.43 22.194 108.102 22.18 108.69 22.18C111.658 22.18 114.01 22.922 115.746 24.406C117.51 25.89 118.392 27.878 118.392 30.37C118.392 31.938 117.986 33.31 117.174 34.486C116.39 35.662 115.326 36.432 113.982 36.796ZM109.362 23.524C108.634 23.524 107.948 23.538 107.304 23.566C106.66 23.594 106.1 23.622 105.624 23.65C104.756 23.734 103.958 23.776 103.23 23.776C103.762 25.176 104.028 27.388 104.028 30.412V36.208H111.084C112.82 36.208 114.192 35.69 115.2 34.654C116.236 33.59 116.754 32.176 116.754 30.412C116.754 28.312 116.082 26.646 114.738 25.414C113.422 24.154 111.63 23.524 109.362 23.524ZM109.74 51.076C112.316 51.076 114.36 50.418 115.872 49.102C117.412 47.758 118.182 45.952 118.182 43.684C118.182 41.808 117.552 40.31 116.292 39.19C115.06 38.07 113.394 37.51 111.294 37.51H104.028V44.104C104.028 47.184 103.762 49.424 103.23 50.824C103.594 50.824 104.392 50.852 105.624 50.908C107.528 51.02 108.9 51.076 109.74 51.076ZM152.026 22.432C152.194 22.432 152.376 22.488 152.572 22.6V50.698C152.572 51.678 152.222 52.168 151.522 52.168C151.354 52.168 151.172 52.112 150.976 52V37.72H134.008V50.698C134.008 51.678 133.658 52.168 132.958 52.168C132.79 52.168 132.608 52.112 132.412 52V23.902C132.412 22.922 132.762 22.432 133.462 22.432C133.63 22.432 133.812 22.488 134.008 22.6V36.376H150.976V23.902C150.976 22.922 151.326 22.432 152.026 22.432ZM165.275 52.252C165.023 52.252 164.771 52.168 164.519 52L174.389 23.818C174.585 23.286 174.795 22.908 175.019 22.684C175.243 22.46 175.523 22.348 175.859 22.348C176.083 22.348 176.293 22.39 176.489 22.474L186.359 50.698C186.443 50.95 186.485 51.174 186.485 51.37C186.485 51.958 186.093 52.252 185.309 52.252L181.865 42.466H169.475L166.451 51.034C166.171 51.846 165.779 52.252 165.275 52.252ZM181.403 41.122L175.649 24.742L169.937 41.122H181.403ZM194.133 23.902C194.077 23.678 194.049 23.524 194.049 23.44C194.049 23.132 194.147 22.894 194.343 22.726C194.567 22.53 194.847 22.432 195.183 22.432L204.591 48.514L213.705 23.314C213.901 22.726 214.265 22.432 214.797 22.432C215.077 22.432 215.329 22.488 215.553 22.6L204.927 52H204.255L194.133 23.902Z" fill="white"/>
<path d="M200.972 7.62384C203.595 6.62267 206.36 6.07135 209.109 6.00137C211.859 5.93139 214.539 6.34412 216.996 7.216C219.454 8.08787 221.641 9.40182 223.433 11.0828C225.224 12.7638 226.585 14.7789 227.438 17.0131C228.291 19.2473 228.619 21.6568 228.403 24.1041C228.187 26.5513 227.432 28.9884 226.181 31.2762C224.929 33.5639 223.097 35.22 221 37C218.903 38.78 216.5 40 213.961 41.65C216.11 40.411 218.184 38.542 220 37C221.816 35.458 222.916 33.9819 224 32C225.084 30.0181 225.417 26.2954 225.604 24.1753C225.791 22.0553 225.507 19.9679 224.768 18.0324C224.029 16.0969 223.052 13.9563 221.5 12.5C219.948 11.0437 218.129 9.25531 216 8.5C214.238 7.45491 213.5 7.59216 209.5 7.216C207.118 7.27662 203.472 7.12384 200.972 7.62384Z" fill="#D9D9D9"/>
<line x1="4.9908" y1="37.8129" x2="210.987" y2="36.5491" stroke="black" stroke-width="3"/>
</svg>
